<svg width="70" height="61" viewBox="0 0 70 61" fill="none" xmlns="http://www.w3.org/2000/svg">
<g clip-path="url(#clip0)">
<rect fill="white"/>
<path d="M42.0973 13.44V48H37.1533V24.312C37.1533 23.928 37.1613 23.512 37.1773 23.064C37.2093 22.6 37.2493 22.136 37.2973 21.672L26.1853 42.192C25.7533 43.04 25.0893 43.464 24.1933 43.464H23.4013C22.4893 43.464 21.8253 43.04 21.4093 42.192L10.1293 21.624C10.1773 22.088 10.2093 22.552 10.2253 23.016C10.2573 23.48 10.2733 23.912 10.2733 24.312V48H5.32934V13.44H9.52934C10.0253 13.44 10.4093 13.488 10.6813 13.584C10.9533 13.664 11.2013 13.928 11.4253 14.376L22.5133 34.464C22.7533 34.928 22.9773 35.408 23.1853 35.904C23.4093 36.384 23.6093 36.88 23.7853 37.392C23.9773 36.88 24.1773 36.376 24.3853 35.88C24.6093 35.368 24.8413 34.88 25.0813 34.416L36.0013 14.376C36.2253 13.928 36.4733 13.664 36.7453 13.584C37.0173 13.488 37.4013 13.44 37.8973 13.44H42.0973ZM66.1225 40.296C66.4265 40.296 66.6905 40.416 66.9145 40.656L69.1465 43.08C67.7385 44.776 66.0105 46.088 63.9625 47.016C61.9145 47.928 59.4665 48.384 56.6185 48.384C54.0905 48.384 51.8025 47.952 49.7545 47.088C47.7225 46.208 45.9865 44.992 44.5465 43.44C43.1065 41.872 41.9945 40.008 41.2105 37.848C40.4425 35.688 40.0585 33.312 40.0585 30.72C40.0585 28.128 40.4665 25.752 41.2825 23.592C42.1145 21.416 43.2745 19.552 44.7625 18C46.2665 16.432 48.0585 15.216 50.1385 14.352C52.2345 13.488 54.5385 13.056 57.0505 13.056C59.5465 13.056 61.7465 13.464 63.6505 14.28C65.5705 15.08 67.2345 16.152 68.6425 17.496L66.7945 20.112C66.6665 20.288 66.5145 20.44 66.3385 20.568C66.1625 20.696 65.9225 20.76 65.6185 20.76C65.2985 20.76 64.9305 20.616 64.5145 20.328C64.1145 20.024 63.5945 19.696 62.9545 19.344C62.3305 18.976 61.5385 18.648 60.5785 18.36C59.6345 18.056 58.4505 17.904 57.0265 17.904C55.3785 17.904 53.8665 18.192 52.4905 18.768C51.1145 19.344 49.9305 20.184 48.9385 21.288C47.9465 22.392 47.1705 23.736 46.6105 25.32C46.0665 26.904 45.7945 28.704 45.7945 30.72C45.7945 32.752 46.0825 34.568 46.6585 36.168C47.2345 37.752 48.0265 39.096 49.0345 40.2C50.0425 41.288 51.2265 42.12 52.5865 42.696C53.9465 43.272 55.4105 43.56 56.9785 43.56C57.9385 43.56 58.7945 43.512 59.5465 43.416C60.3145 43.304 61.0185 43.136 61.6585 42.912C62.2985 42.672 62.8985 42.376 63.4585 42.024C64.0345 41.672 64.6025 41.24 65.1625 40.728C65.4825 40.44 65.8025 40.296 66.1225 40.296Z" fill="black"/>
<line y1="59" x2="69" y2="59" stroke="black" stroke-width="4"/>
</g>
<defs>
<clipPath id="clip0">
<rect width="70" height="61" fill="white"/>
</clipPath>
</defs>
</svg>
